<?xml version="1.0" encoding="UTF-8" standalone="no"?>
<svg xmlns:ffdec="https://www.free-decompiler.com/flash" xmlns:xlink="http://www.w3.org/1999/xlink" xmlns="http://www.w3.org/2000/svg" height="183.1px" width="974.9px">
  <g transform="matrix(1.0, 0.0, 0.0, 1.0, 487.45, 94.3)">
    <use height="183.1" transform="matrix(1.0, 0.0, 0.0, 1.0, -487.45, -94.3)" width="974.9" xlink:href="#shape0"/>
  </g>
  <defs>
    <g id="shape0" transform="matrix(1.0, 0.0, 0.0, 1.0, 487.45, 94.3)">
      <path d="M-444.95 -94.3 L-273.55 -94.3 -299.6 1.4 -328.65 1.4 -300.25 62.15 -365.0 62.15 -393.45 1.4 -404.5 1.4 -420.95 62.15 -487.45 62.15 -444.95 -94.3 M-57.4 -38.15 L-86.15 -38.15 -103.1 24.6 -74.4 24.6 -57.4 -38.15 M-134.7 -72.65 L-31.8 -72.65 1.25 -48.0 -21.7 36.65 -70.3 62.35 -171.35 62.35 -134.7 -72.65 M-148.35 -44.8 L-156.75 -13.95 -222.2 -13.95 -227.55 5.75 -187.05 5.75 -195.5 36.65 -235.95 36.65 -241.05 55.5 -179.15 55.5 -188.2 88.8 -303.3 88.8 -267.05 -44.8 -148.35 -44.8 M-394.6 -34.8 L-356.3 -34.8 -349.95 -58.15 -388.25 -58.15 -394.6 -34.8 M413.6 -41.8 L408.25 -22.1 448.7 -22.1 440.3 8.8 399.85 8.8 394.7 27.7 456.6 27.7 447.55 60.95 332.5 60.95 368.75 -72.65 487.45 -72.65 479.05 -41.8 413.6 -41.8 M144.55 -72.65 L201.3 -72.65 165.05 60.95 108.25 60.95 144.55 -72.65 M269.45 -72.65 L286.65 -21.85 300.45 -72.65 357.3 -72.65 321.0 60.95 264.15 60.95 264.6 59.55 247.35 8.7 233.2 60.95 176.35 60.95 212.65 -72.65 269.45 -72.65 M16.5 -72.65 L73.3 -72.65 47.25 23.2 109.55 23.2 99.35 60.95 -19.8 60.95 16.5 -72.65" fill="#d80c18" fill-rule="evenodd" stroke="none"/>
    </g>
  </defs>
</svg>
